<svg viewBox="0 0 1600 900" xmlns="http://www.w3.org/2000/svg">
  <!-- 黑色背景 -->
  <rect width="1600" height="900" fill="#000000"/>
  
  <!-- 主要樹幹 - 深紅棕色，帶有深淺變化 -->
  <path d="M800 880 C 760 700, 780 600, 800 480 C 820 600, 840 700, 800 880 Z" 
        fill="#6B3410" 
        stroke="#5B2E0A" 
        stroke-width="2"/>
  
  <!-- 樹幹陰影和紋理 -->
  <path d="M795 880 C 755 700, 775 600, 795 480 C 815 600, 835 700, 795 880 Z" 
        fill="#8B4513" 
        opacity="0.6"/>
  
  <!-- 左側主要枝幹 -->
  <path d="M800 500 Q 580 420 420 560" 
        stroke="#6B3410" 
        stroke-width="22" 
        fill="none" 
        stroke-linecap="round"
        stroke-linejoin="round"/>
  <path d="M800 480 Q 680 360 520 340" 
        stroke="#6B3410" 
        stroke-width="18" 
        fill="none" 
        stroke-linecap="round"
        stroke-linejoin="round"/>
  <path d="M790 520 Q 600 520 480 640" 
        stroke="#6B3410" 
        stroke-width="16" 
        fill="none" 
        stroke-linecap="round"
        stroke-linejoin="round"/>
  
  <!-- 右側主要枝幹 -->
  <path d="M800 500 Q 1020 420 1180 560" 
        stroke="#6B3410" 
        stroke-width="22" 
        fill="none" 
        stroke-linecap="round"
        stroke-linejoin="round"/>
  <path d="M800 480 Q 920 360 1080 330" 
        stroke="#6B3410" 
        stroke-width="18" 
        fill="none" 
        stroke-linecap="round"
        stroke-linejoin="round"/>
  <path d="M810 520 Q 1000 500 1120 640" 
        stroke="#6B3410" 
        stroke-width="16" 
        fill="none" 
        stroke-linecap="round"
        stroke-linejoin="round"/>
  
  <!-- 細分支條 - 左側 -->
  <path d="M420 560 Q 380 500 350 480" 
        stroke="#6B3410" 
        stroke-width="10" 
        fill="none" 
        stroke-linecap="round"
        stroke-linejoin="round"/>
  <path d="M520 340 Q 480 300 440 280" 
        stroke="#6B3410" 
        stroke-width="10" 
        fill="none" 
        stroke-linecap="round"
        stroke-linejoin="round"/>
  <path d="M480 640 Q 450 600 420 580" 
        stroke="#6B3410" 
        stroke-width="8" 
        fill="none" 
        stroke-linecap="round"
        stroke-linejoin="round"/>
  
  <!-- 細分支條 - 右側 -->
  <path d="M1180 560 Q 1220 500 1250 480" 
        stroke="#6B3410" 
        stroke-width="10" 
        fill="none" 
        stroke-linecap="round"
        stroke-linejoin="round"/>
  <path d="M1080 330 Q 1120 290 1160 270" 
        stroke="#6B3410" 
        stroke-width="10" 
        fill="none" 
        stroke-linecap="round"
        stroke-linejoin="round"/>
  <path d="M1120 640 Q 1150 600 1180 580" 
        stroke="#6B3410" 
        stroke-width="8" 
        fill="none" 
        stroke-linecap="round"
        stroke-linejoin="round"/>
  
  <!-- 更多細小分支 -->
  <path d="M600 520 Q 580 480 560 460" 
        stroke="#6B3410" 
        stroke-width="6" 
        fill="none" 
        stroke-linecap="round"
        stroke-linejoin="round"/>
  <path d="M1000 500 Q 1020 460 1040 440" 
        stroke="#6B3410" 
        stroke-width="6" 
        fill="none" 
        stroke-linecap="round"
        stroke-linejoin="round"/>
  <path d="M680 360 Q 640 340 620 320" 
        stroke="#6B3410" 
        stroke-width="6" 
        fill="none" 
        stroke-linecap="round"
        stroke-linejoin="round"/>
  <path d="M920 360 Q 960 340 980 320" 
        stroke="#6B3410" 
        stroke-width="6" 
        fill="none" 
        stroke-linecap="round"
        stroke-linejoin="round"/>
  
  <!-- 最細小的分支 -->
  <path d="M350 480 Q 340 460 335 450" 
        stroke="#6B3410" 
        stroke-width="4" 
        fill="none" 
        stroke-linecap="round"/>
  <path d="M1250 480 Q 1260 460 1265 450" 
        stroke="#6B3410" 
        stroke-width="4" 
        fill="none" 
        stroke-linecap="round"/>
  <path d="M440 280 Q 430 260 425 250" 
        stroke="#6B3410" 
        stroke-width="4" 
        fill="none" 
        stroke-linecap="round"/>
  <path d="M1160 270 Q 1170 250 1175 240" 
        stroke="#6B3410" 
        stroke-width="4" 
        fill="none" 
        stroke-linecap="round"/>
  
  <!-- 暗綠色/橄欖綠邊緣光暈效果 -->
  <path d="M800 880 C 760 700, 780 600, 800 480 C 820 600, 840 700, 800 880 Z" 
        fill="none" 
        stroke="#556B2F" 
        stroke-width="6" 
        stroke-opacity="0.4"/>
  <path d="M800 500 Q 580 420 420 560" 
        stroke="#556B2F" 
        stroke-width="2" 
        fill="none" 
        stroke-opacity="0.3"/>
  <path d="M800 500 Q 1020 420 1180 560" 
        stroke="#556B2F" 
        stroke-width="2" 
        fill="none" 
        stroke-opacity="0.3"/>
</svg>

